<mxfile host="app.diagrams.net" modified="2021-11-21T08:34:01.494Z" agent="5.0 (X11; Linux x86_64) AppleWebKit/537.36 (KHTML, like Gecko) Chrome/95.0.4638.69 Safari/537.36" etag="1ovjEqO3lWDpBHt2ml2C" version="15.8.3" type="github">
  <diagram id="eK85-H7qMxUgCvv3NU72" name="Page-1">
    <mxGraphModel dx="2844" dy="1310" grid="1" gridSize="10" guides="1" tooltips="1" connect="1" arrows="1" fold="1" page="1" pageScale="1" pageWidth="827" pageHeight="1169" math="0" shadow="0">
      <root>
        <mxCell id="0" />
        <mxCell id="1" parent="0" />
        <mxCell id="TDVYNjGl4tTBwHzGPA2s-3" value="" style="edgeStyle=orthogonalEdgeStyle;rounded=0;orthogonalLoop=1;jettySize=auto;html=1;" edge="1" parent="1" source="TDVYNjGl4tTBwHzGPA2s-1" target="TDVYNjGl4tTBwHzGPA2s-2">
          <mxGeometry relative="1" as="geometry" />
        </mxCell>
        <mxCell id="TDVYNjGl4tTBwHzGPA2s-1" value="Food App" style="rounded=0;whiteSpace=wrap;html=1;" vertex="1" parent="1">
          <mxGeometry x="90" y="30" width="120" height="60" as="geometry" />
        </mxCell>
        <mxCell id="TDVYNjGl4tTBwHzGPA2s-7" value="" style="edgeStyle=orthogonalEdgeStyle;rounded=0;orthogonalLoop=1;jettySize=auto;html=1;" edge="1" parent="1" source="TDVYNjGl4tTBwHzGPA2s-2" target="TDVYNjGl4tTBwHzGPA2s-6">
          <mxGeometry relative="1" as="geometry" />
        </mxCell>
        <mxCell id="TDVYNjGl4tTBwHzGPA2s-10" value="" style="edgeStyle=orthogonalEdgeStyle;rounded=0;orthogonalLoop=1;jettySize=auto;html=1;" edge="1" parent="1" source="TDVYNjGl4tTBwHzGPA2s-2" target="TDVYNjGl4tTBwHzGPA2s-9">
          <mxGeometry relative="1" as="geometry" />
        </mxCell>
        <mxCell id="TDVYNjGl4tTBwHzGPA2s-12" value="" style="edgeStyle=orthogonalEdgeStyle;rounded=0;orthogonalLoop=1;jettySize=auto;html=1;" edge="1" parent="1" source="TDVYNjGl4tTBwHzGPA2s-2" target="TDVYNjGl4tTBwHzGPA2s-11">
          <mxGeometry relative="1" as="geometry" />
        </mxCell>
        <mxCell id="TDVYNjGl4tTBwHzGPA2s-14" value="" style="edgeStyle=orthogonalEdgeStyle;rounded=0;orthogonalLoop=1;jettySize=auto;html=1;" edge="1" parent="1" source="TDVYNjGl4tTBwHzGPA2s-2" target="TDVYNjGl4tTBwHzGPA2s-13">
          <mxGeometry relative="1" as="geometry" />
        </mxCell>
        <mxCell id="TDVYNjGl4tTBwHzGPA2s-17" value="" style="edgeStyle=orthogonalEdgeStyle;rounded=0;orthogonalLoop=1;jettySize=auto;html=1;" edge="1" parent="1" source="TDVYNjGl4tTBwHzGPA2s-2" target="TDVYNjGl4tTBwHzGPA2s-16">
          <mxGeometry relative="1" as="geometry" />
        </mxCell>
        <mxCell id="TDVYNjGl4tTBwHzGPA2s-20" value="" style="edgeStyle=orthogonalEdgeStyle;rounded=0;orthogonalLoop=1;jettySize=auto;html=1;" edge="1" parent="1" source="TDVYNjGl4tTBwHzGPA2s-2" target="TDVYNjGl4tTBwHzGPA2s-19">
          <mxGeometry relative="1" as="geometry" />
        </mxCell>
        <mxCell id="TDVYNjGl4tTBwHzGPA2s-2" value="Api" style="rounded=0;whiteSpace=wrap;html=1;fillColor=#d5e8d4;strokeColor=#82b366;" vertex="1" parent="1">
          <mxGeometry x="330" y="150" width="120" height="60" as="geometry" />
        </mxCell>
        <mxCell id="TDVYNjGl4tTBwHzGPA2s-48" value="" style="edgeStyle=orthogonalEdgeStyle;rounded=0;orthogonalLoop=1;jettySize=auto;html=1;" edge="1" parent="1" source="TDVYNjGl4tTBwHzGPA2s-6" target="TDVYNjGl4tTBwHzGPA2s-47">
          <mxGeometry relative="1" as="geometry" />
        </mxCell>
        <mxCell id="TDVYNjGl4tTBwHzGPA2s-6" value="admin" style="rounded=0;whiteSpace=wrap;html=1;fillColor=#fff2cc;strokeColor=#d6b656;" vertex="1" parent="1">
          <mxGeometry x="330" y="360" width="120" height="60" as="geometry" />
        </mxCell>
        <mxCell id="TDVYNjGl4tTBwHzGPA2s-22" value="" style="edgeStyle=orthogonalEdgeStyle;rounded=0;orthogonalLoop=1;jettySize=auto;html=1;" edge="1" parent="1" source="TDVYNjGl4tTBwHzGPA2s-9" target="TDVYNjGl4tTBwHzGPA2s-21">
          <mxGeometry relative="1" as="geometry" />
        </mxCell>
        <mxCell id="TDVYNjGl4tTBwHzGPA2s-9" value="customer" style="rounded=0;whiteSpace=wrap;html=1;fillColor=#fff2cc;strokeColor=#d6b656;" vertex="1" parent="1">
          <mxGeometry x="50" y="360" width="120" height="60" as="geometry" />
        </mxCell>
        <mxCell id="TDVYNjGl4tTBwHzGPA2s-40" value="" style="edgeStyle=orthogonalEdgeStyle;rounded=0;orthogonalLoop=1;jettySize=auto;html=1;" edge="1" parent="1" source="TDVYNjGl4tTBwHzGPA2s-11" target="TDVYNjGl4tTBwHzGPA2s-39">
          <mxGeometry relative="1" as="geometry" />
        </mxCell>
        <mxCell id="TDVYNjGl4tTBwHzGPA2s-11" value="vendor" style="rounded=0;whiteSpace=wrap;html=1;fillColor=#fff2cc;strokeColor=#d6b656;" vertex="1" parent="1">
          <mxGeometry x="180" y="360" width="120" height="60" as="geometry" />
        </mxCell>
        <mxCell id="TDVYNjGl4tTBwHzGPA2s-57" value="" style="edgeStyle=orthogonalEdgeStyle;rounded=0;orthogonalLoop=1;jettySize=auto;html=1;" edge="1" parent="1" source="TDVYNjGl4tTBwHzGPA2s-13" target="TDVYNjGl4tTBwHzGPA2s-56">
          <mxGeometry relative="1" as="geometry" />
        </mxCell>
        <mxCell id="TDVYNjGl4tTBwHzGPA2s-13" value="product" style="rounded=0;whiteSpace=wrap;html=1;fillColor=#fff2cc;strokeColor=#d6b656;" vertex="1" parent="1">
          <mxGeometry x="470" y="360" width="120" height="60" as="geometry" />
        </mxCell>
        <mxCell id="TDVYNjGl4tTBwHzGPA2s-66" value="" style="edgeStyle=orthogonalEdgeStyle;rounded=0;orthogonalLoop=1;jettySize=auto;html=1;" edge="1" parent="1" source="TDVYNjGl4tTBwHzGPA2s-16" target="TDVYNjGl4tTBwHzGPA2s-65">
          <mxGeometry relative="1" as="geometry" />
        </mxCell>
        <mxCell id="TDVYNjGl4tTBwHzGPA2s-16" value="order" style="rounded=0;whiteSpace=wrap;html=1;fillColor=#fff2cc;strokeColor=#d6b656;" vertex="1" parent="1">
          <mxGeometry x="750" y="360" width="120" height="60" as="geometry" />
        </mxCell>
        <mxCell id="TDVYNjGl4tTBwHzGPA2s-19" value="cart" style="rounded=0;whiteSpace=wrap;html=1;fillColor=#fff2cc;strokeColor=#d6b656;" vertex="1" parent="1">
          <mxGeometry x="1070" y="370" width="120" height="60" as="geometry" />
        </mxCell>
        <mxCell id="TDVYNjGl4tTBwHzGPA2s-32" value="" style="edgeStyle=orthogonalEdgeStyle;rounded=0;orthogonalLoop=1;jettySize=auto;html=1;" edge="1" parent="1" source="TDVYNjGl4tTBwHzGPA2s-21" target="TDVYNjGl4tTBwHzGPA2s-31">
          <mxGeometry relative="1" as="geometry" />
        </mxCell>
        <mxCell id="TDVYNjGl4tTBwHzGPA2s-34" value="" style="edgeStyle=orthogonalEdgeStyle;rounded=0;orthogonalLoop=1;jettySize=auto;html=1;" edge="1" parent="1" source="TDVYNjGl4tTBwHzGPA2s-21" target="TDVYNjGl4tTBwHzGPA2s-33">
          <mxGeometry relative="1" as="geometry" />
        </mxCell>
        <mxCell id="TDVYNjGl4tTBwHzGPA2s-21" value="/customer" style="whiteSpace=wrap;html=1;rounded=0;fillColor=#dae8fc;strokeColor=#6c8ebf;" vertex="1" parent="1">
          <mxGeometry x="-230" y="510" width="120" height="60" as="geometry" />
        </mxCell>
        <mxCell id="TDVYNjGl4tTBwHzGPA2s-31" value="POST /register" style="whiteSpace=wrap;html=1;rounded=0;strokeColor=#b85450;fillColor=#f8cecc;" vertex="1" parent="1">
          <mxGeometry x="-60" y="470" width="120" height="60" as="geometry" />
        </mxCell>
        <mxCell id="TDVYNjGl4tTBwHzGPA2s-33" value="POST /login" style="whiteSpace=wrap;html=1;rounded=0;strokeColor=#b85450;fillColor=#f8cecc;" vertex="1" parent="1">
          <mxGeometry x="-60" y="540" width="120" height="60" as="geometry" />
        </mxCell>
        <mxCell id="TDVYNjGl4tTBwHzGPA2s-42" value="" style="edgeStyle=orthogonalEdgeStyle;rounded=0;orthogonalLoop=1;jettySize=auto;html=1;" edge="1" parent="1" source="TDVYNjGl4tTBwHzGPA2s-39" target="TDVYNjGl4tTBwHzGPA2s-41">
          <mxGeometry relative="1" as="geometry" />
        </mxCell>
        <mxCell id="TDVYNjGl4tTBwHzGPA2s-46" value="" style="edgeStyle=orthogonalEdgeStyle;rounded=0;orthogonalLoop=1;jettySize=auto;html=1;" edge="1" parent="1" source="TDVYNjGl4tTBwHzGPA2s-39" target="TDVYNjGl4tTBwHzGPA2s-45">
          <mxGeometry relative="1" as="geometry" />
        </mxCell>
        <mxCell id="TDVYNjGl4tTBwHzGPA2s-39" value="/vendor" style="whiteSpace=wrap;html=1;rounded=0;strokeColor=#6c8ebf;fillColor=#dae8fc;" vertex="1" parent="1">
          <mxGeometry x="80" y="470" width="120" height="60" as="geometry" />
        </mxCell>
        <mxCell id="TDVYNjGl4tTBwHzGPA2s-41" value="POST /register" style="whiteSpace=wrap;html=1;rounded=0;strokeColor=#b85450;fillColor=#f8cecc;" vertex="1" parent="1">
          <mxGeometry x="200" y="570" width="120" height="60" as="geometry" />
        </mxCell>
        <mxCell id="TDVYNjGl4tTBwHzGPA2s-45" value="POST /login" style="whiteSpace=wrap;html=1;rounded=0;strokeColor=#b85450;fillColor=#f8cecc;" vertex="1" parent="1">
          <mxGeometry x="70" y="570" width="120" height="60" as="geometry" />
        </mxCell>
        <mxCell id="TDVYNjGl4tTBwHzGPA2s-50" value="" style="edgeStyle=orthogonalEdgeStyle;rounded=0;orthogonalLoop=1;jettySize=auto;html=1;" edge="1" parent="1" source="TDVYNjGl4tTBwHzGPA2s-47" target="TDVYNjGl4tTBwHzGPA2s-49">
          <mxGeometry relative="1" as="geometry">
            <Array as="points">
              <mxPoint x="360" y="550" />
              <mxPoint x="360" y="550" />
            </Array>
          </mxGeometry>
        </mxCell>
        <mxCell id="TDVYNjGl4tTBwHzGPA2s-52" value="" style="edgeStyle=orthogonalEdgeStyle;rounded=0;orthogonalLoop=1;jettySize=auto;html=1;" edge="1" parent="1" source="TDVYNjGl4tTBwHzGPA2s-47" target="TDVYNjGl4tTBwHzGPA2s-51">
          <mxGeometry relative="1" as="geometry" />
        </mxCell>
        <mxCell id="TDVYNjGl4tTBwHzGPA2s-47" value="/admin" style="rounded=0;whiteSpace=wrap;html=1;fillColor=#dae8fc;strokeColor=#6c8ebf;" vertex="1" parent="1">
          <mxGeometry x="260" y="470" width="120" height="60" as="geometry" />
        </mxCell>
        <mxCell id="TDVYNjGl4tTBwHzGPA2s-49" value="POST /login" style="rounded=0;whiteSpace=wrap;html=1;fillColor=#f8cecc;strokeColor=#b85450;" vertex="1" parent="1">
          <mxGeometry x="340" y="570" width="120" height="60" as="geometry" />
        </mxCell>
        <mxCell id="TDVYNjGl4tTBwHzGPA2s-51" value="POST /register" style="rounded=0;whiteSpace=wrap;html=1;fillColor=#f8cecc;strokeColor=#b85450;" vertex="1" parent="1">
          <mxGeometry x="400" y="470" width="120" height="60" as="geometry" />
        </mxCell>
        <mxCell id="TDVYNjGl4tTBwHzGPA2s-59" value="" style="edgeStyle=orthogonalEdgeStyle;rounded=0;orthogonalLoop=1;jettySize=auto;html=1;" edge="1" parent="1" source="TDVYNjGl4tTBwHzGPA2s-56" target="TDVYNjGl4tTBwHzGPA2s-58">
          <mxGeometry relative="1" as="geometry" />
        </mxCell>
        <mxCell id="TDVYNjGl4tTBwHzGPA2s-61" value="" style="edgeStyle=orthogonalEdgeStyle;rounded=0;orthogonalLoop=1;jettySize=auto;html=1;" edge="1" parent="1" source="TDVYNjGl4tTBwHzGPA2s-56" target="TDVYNjGl4tTBwHzGPA2s-60">
          <mxGeometry relative="1" as="geometry" />
        </mxCell>
        <mxCell id="TDVYNjGl4tTBwHzGPA2s-64" value="" style="edgeStyle=orthogonalEdgeStyle;rounded=0;orthogonalLoop=1;jettySize=auto;html=1;" edge="1" parent="1" source="TDVYNjGl4tTBwHzGPA2s-56" target="TDVYNjGl4tTBwHzGPA2s-63">
          <mxGeometry relative="1" as="geometry">
            <Array as="points">
              <mxPoint x="630" y="630" />
              <mxPoint x="630" y="630" />
            </Array>
          </mxGeometry>
        </mxCell>
        <mxCell id="TDVYNjGl4tTBwHzGPA2s-56" value="/product" style="rounded=0;whiteSpace=wrap;html=1;fillColor=#dae8fc;strokeColor=#6c8ebf;" vertex="1" parent="1">
          <mxGeometry x="530" y="470" width="120" height="60" as="geometry" />
        </mxCell>
        <mxCell id="TDVYNjGl4tTBwHzGPA2s-58" value="POST /:id" style="rounded=0;whiteSpace=wrap;html=1;fillColor=#f8cecc;strokeColor=#b85450;" vertex="1" parent="1">
          <mxGeometry x="500" y="570" width="120" height="60" as="geometry" />
        </mxCell>
        <mxCell id="TDVYNjGl4tTBwHzGPA2s-60" value="GET /" style="whiteSpace=wrap;html=1;rounded=0;strokeColor=#b85450;fillColor=#f8cecc;" vertex="1" parent="1">
          <mxGeometry x="650" y="570" width="120" height="60" as="geometry" />
        </mxCell>
        <mxCell id="TDVYNjGl4tTBwHzGPA2s-63" value="POST /" style="rounded=0;whiteSpace=wrap;html=1;fillColor=#f8cecc;strokeColor=#b85450;" vertex="1" parent="1">
          <mxGeometry x="570" y="650" width="120" height="60" as="geometry" />
        </mxCell>
        <mxCell id="TDVYNjGl4tTBwHzGPA2s-68" value="" style="edgeStyle=orthogonalEdgeStyle;rounded=0;orthogonalLoop=1;jettySize=auto;html=1;" edge="1" parent="1" source="TDVYNjGl4tTBwHzGPA2s-65" target="TDVYNjGl4tTBwHzGPA2s-67">
          <mxGeometry relative="1" as="geometry" />
        </mxCell>
        <mxCell id="TDVYNjGl4tTBwHzGPA2s-70" value="" style="edgeStyle=orthogonalEdgeStyle;rounded=0;orthogonalLoop=1;jettySize=auto;html=1;" edge="1" parent="1" source="TDVYNjGl4tTBwHzGPA2s-65" target="TDVYNjGl4tTBwHzGPA2s-69">
          <mxGeometry relative="1" as="geometry" />
        </mxCell>
        <mxCell id="TDVYNjGl4tTBwHzGPA2s-65" value="/order" style="rounded=0;whiteSpace=wrap;html=1;fillColor=#dae8fc;strokeColor=#6c8ebf;" vertex="1" parent="1">
          <mxGeometry x="750" y="460" width="120" height="60" as="geometry" />
        </mxCell>
        <mxCell id="TDVYNjGl4tTBwHzGPA2s-67" value="POST /order" style="rounded=0;whiteSpace=wrap;html=1;fillColor=#f8cecc;strokeColor=#b85450;" vertex="1" parent="1">
          <mxGeometry x="790" y="570" width="120" height="60" as="geometry" />
        </mxCell>
        <mxCell id="TDVYNjGl4tTBwHzGPA2s-69" value="/order" style="rounded=0;whiteSpace=wrap;html=1;fillColor=#dae8fc;strokeColor=#6c8ebf;" vertex="1" parent="1">
          <mxGeometry x="920" y="570" width="120" height="60" as="geometry" />
        </mxCell>
      </root>
    </mxGraphModel>
  </diagram>
</mxfile>
